<svg width="446" height="571" viewBox="0 0 446 571" fill="none" xmlns="http://www.w3.org/2000/svg">
<path d="M422.805 453.852C434.758 453.852 444.448 447.805 444.448 440.345C444.448 432.886 434.758 426.839 422.805 426.839C410.852 426.839 401.162 432.886 401.162 440.345C401.162 447.805 410.852 453.852 422.805 453.852Z" fill="url(#paint0_radial)"/>
<path d="M236.777 533.731C237.59 538.566 241.384 541.781 245.268 540.889C249.153 539.998 251.664 535.351 250.851 530.516C250.038 525.681 246.244 522.466 242.36 523.358C238.475 524.249 235.982 528.882 236.777 533.731Z" fill="url(#paint1_radial)"/>
<path d="M254.645 560.487C264.563 567.241 279.323 562 287.615 548.777C295.908 535.554 294.589 519.346 284.671 512.593C274.752 505.839 259.992 511.08 251.7 524.303C243.407 537.526 244.726 553.721 254.645 560.487Z" fill="url(#paint2_radial)"/>
<path d="M152.318 567.943C162.236 574.696 176.996 569.456 185.288 556.233C193.581 543.01 192.262 526.802 182.344 520.048C172.425 513.295 157.665 518.536 149.373 531.759C141.08 544.982 142.399 561.19 152.318 567.943Z" fill="url(#paint3_radial)"/>
<path d="M118.227 386.116C110.928 399.109 147.801 438.576 200.591 474.261C253.38 509.945 302.068 528.341 309.367 515.348C316.666 502.355 279.793 462.888 227.003 427.203C174.214 391.519 125.507 373.123 118.227 386.116Z" fill="url(#paint4_radial)"/>
<path d="M227.473 403.85C314.359 403.85 384.794 391.677 384.794 376.661C384.794 361.645 314.359 349.472 227.473 349.472C140.587 349.472 70.1525 361.645 70.1525 376.661C70.1525 391.677 140.587 403.85 227.473 403.85Z" fill="url(#paint5_radial)"/>
<path d="M145.94 415.263C226.48 415.263 291.771 402.891 291.771 387.629C291.771 372.367 226.48 359.994 145.94 359.994C65.4002 359.994 0.109619 372.367 0.109619 387.629C0.109619 402.891 65.4002 415.263 145.94 415.263Z" fill="url(#paint6_radial)"/>
<path d="M7.86012 393.234C0.561368 406.227 37.0551 445.437 89.3749 480.798C141.695 516.158 190.004 534.298 197.302 521.304C204.601 508.311 168.107 469.101 115.788 433.741C63.4679 398.38 15.1589 380.254 7.86012 393.234Z" fill="url(#paint7_radial)"/>
<path d="M326.711 173.453C329.096 187.838 340.405 197.373 351.967 194.726C363.53 192.079 370.973 178.275 368.57 163.89C366.167 149.506 354.876 139.97 343.314 142.617C331.769 145.251 324.326 159.068 326.711 173.453Z" fill="url(#paint8_radial)"/>
<path d="M117.721 539.714C122.75 539.714 126.826 535.929 126.826 531.259C126.826 526.589 122.75 522.804 117.721 522.804C112.692 522.804 108.615 526.589 108.615 531.259C108.615 535.929 112.692 539.714 117.721 539.714Z" fill="url(#paint9_radial)"/>
<path d="M222.577 154.165C259.335 154.165 289.133 119.654 289.133 77.0827C289.133 34.5111 259.335 0 222.577 0C185.819 0 156.021 34.5111 156.021 77.0827C156.021 119.654 185.819 154.165 222.577 154.165Z" fill="url(#paint10_radial)"/>
<path d="M222.541 154.165C259.299 154.165 289.097 119.654 289.097 77.0827C289.097 34.5111 259.299 0 222.541 0C185.783 0 155.985 34.5111 155.985 77.0827C155.985 119.654 185.783 154.165 222.541 154.165Z" fill="url(#paint11_radial)"/>
<path d="M253.669 64.3999C266.82 64.3999 277.48 60.82 277.48 56.404C277.48 51.9879 266.82 48.408 253.669 48.408C240.518 48.408 229.858 51.9879 229.858 56.404C229.858 60.82 240.518 64.3999 253.669 64.3999Z" fill="url(#paint12_radial)"/>
<path d="M253.633 64.3999C266.783 64.3999 277.444 60.82 277.444 56.404C277.444 51.9879 266.783 48.408 253.633 48.408C240.482 48.408 229.822 51.9879 229.822 56.404C229.822 60.82 240.482 64.3999 253.633 64.3999Z" fill="url(#paint13_radial)"/>
<path d="M253.669 64.3999C257.291 64.3999 260.227 60.82 260.227 56.404C260.227 51.9879 257.291 48.408 253.669 48.408C250.047 48.408 247.111 51.9879 247.111 56.404C247.111 60.82 250.047 64.3999 253.669 64.3999Z" fill="url(#paint14_radial)"/>
<path d="M224.366 127.503C237.516 127.503 248.177 123.923 248.177 119.507C248.177 115.091 237.516 111.511 224.366 111.511C211.215 111.511 200.554 115.091 200.554 119.507C200.554 123.923 211.215 127.503 224.366 127.503Z" fill="url(#paint15_radial)"/>
<path d="M224.348 127.503C237.498 127.503 248.159 123.923 248.159 119.507C248.159 115.091 237.498 111.511 224.348 111.511C211.197 111.511 200.536 115.091 200.536 119.507C200.536 123.923 211.197 127.503 224.348 127.503Z" fill="url(#paint16_radial)"/>
<path d="M224.366 125.747C234.633 125.747 242.956 122.954 242.956 119.507C242.956 116.061 234.633 113.267 224.366 113.267C214.099 113.267 205.776 116.061 205.776 119.507C205.776 122.954 214.099 125.747 224.366 125.747Z" fill="url(#paint17_radial)"/>
<path d="M218.295 98.9366C219.712 98.9366 220.861 97.6425 220.861 96.0461C220.861 94.4498 219.712 93.1557 218.295 93.1557C216.879 93.1557 215.73 94.4498 215.73 96.0461C215.73 97.6425 216.879 98.9366 218.295 98.9366Z" fill="url(#paint18_radial)"/>
<path d="M231.827 99.1257C233.244 99.1257 234.392 97.8316 234.392 96.2352C234.392 94.6389 233.244 93.3448 231.827 93.3448C230.41 93.3448 229.262 94.6389 229.262 96.2352C229.262 97.8316 230.41 99.1257 231.827 99.1257Z" fill="url(#paint19_radial)"/>
<path d="M225.197 92.2643C227.571 92.2643 229.496 86.9367 229.496 80.3649C229.496 73.793 227.571 68.4655 225.197 68.4655C222.822 68.4655 220.897 73.793 220.897 80.3649C220.897 86.9367 222.822 92.2643 225.197 92.2643Z" fill="url(#paint20_radial)"/>
<path d="M224.962 97.6264C228.843 97.6264 231.99 95.3406 231.99 92.5209C231.99 89.7012 228.843 87.4153 224.962 87.4153C221.08 87.4153 217.934 89.7012 217.934 92.5209C217.934 95.3406 221.08 97.6264 224.962 97.6264Z" fill="url(#paint21_radial)"/>
<path d="M195.929 64.3999C209.08 64.3999 219.741 60.82 219.741 56.404C219.741 51.9879 209.08 48.408 195.929 48.408C182.779 48.408 172.118 51.9879 172.118 56.404C172.118 60.82 182.779 64.3999 195.929 64.3999Z" fill="url(#paint22_radial)"/>
<path d="M195.966 64.3999C199.508 64.3999 202.379 60.82 202.379 56.404C202.379 51.9879 199.508 48.408 195.966 48.408C192.424 48.408 189.552 51.9879 189.552 56.404C189.552 60.82 192.424 64.3999 195.966 64.3999Z" fill="url(#paint23_radial)"/>
<path d="M276.92 399.42C332.486 399.42 377.531 333.833 377.531 252.926C377.531 172.02 332.486 106.433 276.92 106.433C221.355 106.433 176.31 172.02 176.31 252.926C176.31 333.833 221.355 399.42 276.92 399.42Z" fill="url(#paint24_radial)"/>
<path d="M188.197 183.367C190.582 197.752 201.891 207.287 213.454 204.64C225.016 201.993 232.441 188.189 230.056 173.804C227.672 159.42 216.362 149.884 204.8 152.531C193.238 155.165 185.812 168.982 188.197 183.367Z" fill="url(#paint25_radial)"/>
<path d="M184.62 190.242C187.005 204.626 198.314 214.162 209.877 211.515C221.439 208.868 228.882 195.064 226.479 180.679C224.077 166.294 212.785 156.759 201.223 159.406C189.679 162.053 182.235 175.857 184.62 190.242Z" fill="url(#paint26_radial)"/>
<path d="M181.061 197.13C183.446 211.515 194.755 221.051 206.317 218.403C217.88 215.756 225.323 201.952 222.92 187.568C220.518 173.183 209.226 163.647 197.664 166.294C186.101 168.928 178.658 182.732 181.061 197.13Z" fill="url(#paint27_radial)"/>
<path d="M177.484 204.005C179.868 218.39 191.178 227.926 202.74 225.278C214.303 222.631 221.728 208.827 219.343 194.442C216.959 180.058 205.649 170.522 194.087 173.169C182.524 175.803 175.099 189.621 177.484 204.005Z" fill="url(#paint28_radial)"/>
<path d="M173.925 210.894C176.31 225.278 187.619 234.814 199.181 232.167C210.744 229.519 218.169 215.715 215.784 201.331C213.4 186.946 202.09 177.41 190.528 180.058C178.965 182.692 171.522 196.495 173.925 210.894Z" fill="url(#paint29_radial)"/>
<path d="M170.348 217.768C172.732 232.153 184.042 241.689 195.604 239.042C207.167 236.394 214.592 222.59 212.207 208.206C209.822 193.821 198.513 184.285 186.951 186.933C175.388 189.567 167.963 203.37 170.348 217.768Z" fill="url(#paint30_radial)"/>
<path d="M166.77 224.643C169.155 239.028 180.465 248.564 192.027 245.916C203.589 243.269 211.015 229.465 208.63 215.081C206.245 200.683 194.936 191.16 183.373 193.808C171.829 196.441 164.386 210.259 166.77 224.643Z" fill="url(#paint31_radial)"/>
<path d="M163.211 231.532C165.596 245.916 176.906 255.452 188.468 252.805C200.03 250.158 207.456 236.354 205.071 221.969C202.686 207.584 191.377 198.049 179.814 200.696C168.252 203.33 160.827 217.134 163.211 231.532Z" fill="url(#paint32_radial)"/>
<path d="M159.634 238.407C162.019 252.791 173.329 262.327 184.891 259.68C196.453 257.032 203.879 243.229 201.494 228.844C199.109 214.459 187.8 204.924 176.237 207.571C164.693 210.205 157.25 224.022 159.634 238.407Z" fill="url(#paint33_radial)"/>
<path d="M156.075 245.282C158.46 259.666 169.77 269.202 181.332 266.555C192.894 263.907 200.32 250.104 197.935 235.719C195.55 221.334 184.241 211.799 172.678 214.446C161.116 217.093 153.672 230.897 156.075 245.282Z" fill="url(#paint34_radial)"/>
<path d="M152.498 252.17C154.883 266.555 166.192 276.09 177.755 273.443C189.317 270.796 196.761 256.992 194.358 242.607C191.955 228.223 180.664 218.687 169.101 221.334C157.539 223.968 150.114 237.772 152.498 252.17Z" fill="url(#paint35_radial)"/>
<path d="M148.939 259.045C151.324 273.43 162.633 282.965 174.196 280.318C185.758 277.671 193.183 263.867 190.799 249.482C188.414 235.098 177.105 225.562 165.542 228.209C153.98 230.843 146.537 244.66 148.939 259.045Z" fill="url(#paint36_radial)"/>
<path d="M145.362 265.92C147.747 280.304 159.056 289.84 170.619 287.193C182.181 284.546 189.624 270.742 187.222 256.357C184.819 241.973 173.527 232.437 161.965 235.084C150.403 237.731 142.977 251.535 145.362 265.92Z" fill="url(#paint37_radial)"/>
<path d="M141.785 272.808C144.17 287.193 155.479 296.729 167.042 294.081C178.604 291.434 186.029 277.63 183.645 263.246C181.26 248.861 169.95 239.325 158.388 241.972C146.844 244.606 139.4 258.41 141.785 272.808Z" fill="url(#paint38_radial)"/>
<path d="M138.226 279.683C140.611 294.068 151.92 303.604 163.483 300.956C175.045 298.309 182.47 284.505 180.085 270.12C177.701 255.722 166.391 246.2 154.829 248.847C143.266 251.481 135.841 265.299 138.226 279.683Z" fill="url(#paint39_radial)"/>
<path d="M134.649 286.572C137.034 300.956 148.343 310.492 159.905 307.845C171.468 305.197 178.893 291.393 176.508 277.009C174.123 262.624 162.814 253.088 151.252 255.736C139.689 258.37 132.264 272.173 134.649 286.572Z" fill="url(#paint40_radial)"/>
<path d="M131.09 293.447C133.474 307.831 144.784 317.367 156.346 314.72C167.909 312.072 175.334 298.268 172.949 283.884C170.564 269.499 159.255 259.963 147.693 262.611C136.13 265.245 128.687 279.048 131.09 293.447Z" fill="url(#paint41_radial)"/>
<path d="M127.513 300.321C129.897 314.706 141.207 324.242 152.769 321.594C164.332 318.947 171.757 305.143 169.372 290.759C166.987 276.374 155.678 266.838 144.116 269.486C132.553 272.133 125.128 285.937 127.513 300.321Z" fill="url(#paint42_radial)"/>
<path d="M120.973 298.782C123.357 313.166 134.667 322.702 146.229 320.055C157.792 317.407 165.217 303.604 162.832 289.219C160.447 274.834 149.138 265.299 137.575 267.946C126.013 270.593 118.588 284.397 120.973 298.782Z" fill="url(#paint43_radial)"/>
<path d="M114.433 297.255C116.817 311.654 128.127 321.176 139.689 318.528C151.252 315.881 158.677 302.077 156.292 287.693C153.907 273.295 142.598 263.772 131.035 266.42C119.473 269.053 112.048 282.857 114.433 297.255Z" fill="url(#paint44_radial)"/>
<path d="M107.893 295.716C110.278 310.1 121.587 319.636 133.149 316.989C144.712 314.341 152.137 300.538 149.752 286.153C147.367 271.768 136.058 262.233 124.496 264.88C112.951 267.514 105.508 281.317 107.893 295.716Z" fill="url(#paint45_radial)"/>
<path d="M101.353 294.176C103.738 308.561 115.047 318.096 126.609 315.449C138.172 312.802 145.597 298.998 143.212 284.613C140.827 270.228 129.518 260.693 117.956 263.34C106.411 265.974 98.968 279.778 101.353 294.176Z" fill="url(#paint46_radial)"/>
<path d="M94.8128 292.636C97.1976 307.021 108.507 316.556 120.069 313.909C131.632 311.262 139.075 297.458 136.672 283.073C134.269 268.689 122.978 259.153 111.416 261.8C99.8714 264.434 92.4281 278.238 94.8128 292.636Z" fill="url(#paint47_radial)"/>
<path d="M88.2909 291.096C90.6756 305.481 101.985 315.017 113.547 312.369C125.11 309.722 132.553 295.918 130.15 281.534C127.747 267.149 116.456 257.613 104.894 260.261C93.3313 262.894 85.8881 276.712 88.2909 291.096Z" fill="url(#paint48_radial)"/>
<path d="M81.751 289.557C84.1357 303.941 95.4452 313.477 107.008 310.83C118.57 308.182 125.995 294.378 123.61 279.994C121.226 265.609 109.916 256.074 98.3538 258.721C86.7914 261.355 79.3481 275.172 81.751 289.557Z" fill="url(#paint49_radial)"/>
<path d="M75.211 288.017C77.5958 302.401 88.9052 311.937 100.468 309.29C112.03 306.643 119.455 292.839 117.07 278.454C114.686 264.069 103.376 254.534 91.8138 257.181C80.2515 259.815 72.8082 273.632 75.211 288.017Z" fill="url(#paint50_radial)"/>
<path d="M68.671 286.477C71.0557 300.862 82.3652 310.397 93.9276 307.75C105.49 305.103 112.915 291.299 110.53 276.914C108.146 262.53 96.8362 252.994 85.2738 255.641C73.7115 258.289 66.2682 272.092 68.671 286.477Z" fill="url(#paint51_radial)"/>
<path d="M62.131 284.937C64.5157 299.322 75.8252 308.858 87.3875 306.21C98.9499 303.563 106.375 289.759 103.99 275.375C101.606 260.99 90.2962 251.454 78.7338 254.102C67.1715 256.749 59.7462 270.553 62.131 284.937Z" fill="url(#paint52_radial)"/>
<path d="M55.5911 283.411C57.9758 297.796 69.2852 307.331 80.8476 304.684C92.41 302.037 99.8352 288.233 97.4505 273.848C95.0657 259.464 83.7563 249.928 72.1939 252.575C60.6315 255.209 53.2063 269.013 55.5911 283.411Z" fill="url(#paint53_radial)"/>
<path d="M49.051 281.871C51.4358 296.256 62.7452 305.792 74.3076 303.144C85.87 300.497 93.2952 286.693 90.9104 272.309C88.5257 257.924 77.2163 248.388 65.6539 251.035C54.0915 253.669 46.6663 267.473 49.051 281.871Z" fill="url(#paint54_radial)"/>
<path d="M42.5111 280.332C44.8958 294.716 56.2053 304.252 67.7677 301.605C79.3301 298.957 86.7734 285.153 84.3706 270.769C81.9678 256.384 70.6764 246.848 59.114 249.496C47.5516 252.13 40.1264 265.933 42.5111 280.332Z" fill="url(#paint55_radial)"/>
<path d="M35.9712 278.792C38.3559 293.176 49.6654 302.712 61.2278 300.065C72.7902 297.417 80.2154 283.614 77.8306 269.229C75.4459 254.844 64.1364 245.309 52.5741 247.956C41.0117 250.59 33.5864 264.394 35.9712 278.792Z" fill="url(#paint56_radial)"/>
<path d="M29.4311 277.252C31.8159 291.637 43.1254 301.172 54.6878 298.525C66.2501 295.878 73.6753 282.074 71.2906 267.689C68.9058 253.305 57.5964 243.769 46.034 246.416C34.4716 249.05 27.0464 262.867 29.4311 277.252Z" fill="url(#paint57_radial)"/>
<path d="M11.1843 271.417C13.5691 285.802 24.8785 295.337 36.4409 292.69C48.0033 290.043 55.4285 276.239 53.0438 261.854C50.659 247.47 39.3496 237.934 27.7872 240.581C16.2248 243.215 8.79958 257.019 11.1843 271.417Z" fill="url(#paint58_radial)"/>
<path d="M276.414 518.725C278.799 533.109 290.109 542.645 301.671 539.998C313.233 537.35 320.677 523.547 318.274 509.162C315.871 494.777 304.58 485.242 293.017 487.889C281.455 490.536 274.03 504.34 276.414 518.725Z" fill="url(#paint59_radial)"/>
<path d="M163.284 524.83C165.669 539.214 176.978 548.75 188.54 546.103C200.103 543.456 207.528 529.652 205.143 515.267C202.758 500.882 191.449 491.347 179.887 493.994C168.324 496.641 160.881 510.445 163.284 524.83Z" fill="url(#paint60_radial)"/>
<path d="M24.2823 239.676C25.0953 244.512 28.8892 247.726 32.7734 246.835C36.6576 245.943 39.1688 241.297 38.3559 236.462C37.5429 231.626 33.749 228.412 29.8648 229.303C25.9805 230.195 23.4874 234.841 24.2823 239.676Z" fill="url(#paint61_radial)"/>
<path d="M24.5895 235.165C25.4024 240.001 29.1963 243.215 33.0806 242.324C36.9648 241.432 39.476 236.786 38.663 231.951C37.85 227.115 34.0561 223.901 30.1719 224.792C26.2696 225.683 23.7765 230.316 24.5895 235.165Z" fill="url(#paint62_radial)"/>
<path d="M24.8785 230.654C25.6915 235.489 29.4854 238.704 33.3696 237.812C37.2539 236.921 39.7651 232.275 38.9521 227.439C38.1391 222.604 34.3452 219.389 30.461 220.281C26.5767 221.159 24.0836 225.805 24.8785 230.654Z" fill="url(#paint63_radial)"/>
<path d="M25.1674 226.129C25.9804 230.965 29.7744 234.179 33.6586 233.288C37.5428 232.396 40.054 227.75 39.2411 222.915C38.4281 218.079 34.6342 214.865 30.7499 215.756C26.8657 216.647 24.3725 221.294 25.1674 226.129Z" fill="url(#paint64_radial)"/>
<path d="M25.4747 221.618C26.2877 226.453 30.0816 229.668 33.9658 228.776C37.8501 227.885 40.3613 223.239 39.5483 218.403C38.7353 213.568 34.9414 210.353 31.0571 211.245C27.1729 212.136 24.6617 216.783 25.4747 221.618Z" fill="url(#paint65_radial)"/>
<path d="M6.90265 248.496C7.71563 253.332 11.5096 256.546 15.3938 255.655C19.278 254.763 21.7892 250.117 20.9762 245.282C20.1633 240.446 16.3694 237.232 12.4851 238.123C8.60089 239.015 6.08967 243.661 6.90265 248.496Z" fill="url(#paint66_radial)"/>
<path d="M10.299 252.17C11.112 257.005 14.9059 260.22 18.7902 259.329C22.6744 258.437 25.1856 253.791 24.3726 248.955C23.5597 244.12 19.7657 240.905 15.8815 241.797C11.9973 242.688 9.50413 247.335 10.299 252.17Z" fill="url(#paint67_radial)"/>
<path d="M13.3884 253.899C14.2014 258.734 17.9953 261.949 21.8795 261.057C25.7638 260.166 28.275 255.52 27.462 250.684C26.649 245.849 22.8551 242.634 18.9708 243.526C15.0866 244.404 12.5754 249.05 13.3884 253.899Z" fill="url(#paint68_radial)"/>
<path d="M16.4597 255.614C17.2727 260.45 21.0666 263.664 24.9508 262.773C28.835 261.881 31.3462 257.235 30.5333 252.4C29.7203 247.564 25.9264 244.35 22.0421 245.241C18.1579 246.133 15.6648 250.779 16.4597 255.614Z" fill="url(#paint69_radial)"/>
<path d="M19.5309 257.343C20.3438 262.179 24.1377 265.393 28.022 264.502C31.9062 263.61 34.4174 258.964 33.6045 254.129C32.7915 249.293 28.9976 246.079 25.1133 246.97C21.2291 247.848 18.7359 252.494 19.5309 257.343Z" fill="url(#paint70_radial)"/>
<path d="M0.742006 266.582C1.55499 271.417 5.34889 274.632 9.23313 273.74C13.1174 272.849 15.6286 268.203 14.8156 263.367C14.0026 258.532 10.2087 255.317 6.32446 256.209C2.44022 257.1 -0.0709736 261.746 0.742006 266.582Z" fill="url(#paint71_radial)"/>
<path d="M5.09591 267.608C5.90889 272.444 9.70283 275.658 13.5871 274.767C17.4713 273.875 19.9825 269.229 19.1695 264.394C18.3566 259.558 14.5627 256.344 10.6784 257.235C6.79416 258.126 4.301 262.773 5.09591 267.608Z" fill="url(#paint72_radial)"/>
<path d="M9.46799 268.635C10.281 273.47 14.0749 276.685 17.9591 275.793C21.8433 274.902 24.3545 270.256 23.5415 265.42C22.7286 260.585 18.9347 257.37 15.0504 258.262C11.1481 259.153 8.65501 263.799 9.46799 268.635Z" fill="url(#paint73_radial)"/>
<path d="M13.8221 269.661C14.6351 274.497 18.429 277.711 22.3132 276.82C26.1974 275.928 28.7086 271.282 27.8956 266.447C27.0827 261.611 23.2888 258.397 19.4045 259.288C15.5203 260.18 13.0091 264.826 13.8221 269.661Z" fill="url(#paint74_radial)"/>
<path d="M18.176 270.688C18.989 275.523 22.7829 278.738 26.6671 277.846C30.5513 276.955 33.0626 272.309 32.2496 267.473C31.4366 262.638 27.6427 259.423 23.7584 260.315C19.8742 261.206 17.3811 265.852 18.176 270.688Z" fill="url(#paint75_radial)"/>
<path d="M3.36166 282.358C4.17464 287.193 7.96854 290.408 11.8528 289.516C15.737 288.625 18.2482 283.978 17.4352 279.143C16.6223 274.308 12.8284 271.093 8.94412 271.984C5.05988 272.876 2.56675 277.522 3.36166 282.358Z" fill="url(#paint76_radial)"/>
<path d="M6.27024 281.29C7.08322 286.126 10.8771 289.34 14.7614 288.449C18.6456 287.558 21.1568 282.911 20.3438 278.076C19.5308 273.241 15.7369 270.026 11.8527 270.917C7.95039 271.809 5.45726 276.455 6.27024 281.29Z" fill="url(#paint77_radial)"/>
<path d="M9.16085 280.223C9.97383 285.059 13.7678 288.273 17.652 287.382C21.5362 286.491 24.0474 281.844 23.2344 277.009C22.4215 272.173 18.6276 268.959 14.7433 269.85C10.8591 270.742 8.36594 275.388 9.16085 280.223Z" fill="url(#paint78_radial)"/>
<path d="M12.0515 279.156C12.8645 283.992 16.6584 287.206 20.5426 286.315C24.4268 285.424 26.938 280.777 26.125 275.942C25.3121 271.106 21.5182 267.892 17.6339 268.783C13.7497 269.675 11.2566 274.321 12.0515 279.156Z" fill="url(#paint79_radial)"/>
<path d="M14.9601 278.089C15.7731 282.925 19.567 286.139 23.4513 285.248C27.3355 284.357 29.8467 279.71 29.0338 274.875C28.2208 270.039 24.4269 266.825 20.5426 267.716C16.6584 268.608 14.1472 273.254 14.9601 278.089Z" fill="url(#paint80_radial)"/>
<path d="M15.0323 294.257C15.8453 299.092 19.6392 302.307 23.5235 301.415C27.4077 300.524 29.9189 295.878 29.106 291.042C28.293 286.207 24.4991 282.992 20.6148 283.884C16.7125 284.762 14.2193 289.408 15.0323 294.257Z" fill="url(#paint81_radial)"/>
<path d="M17.7966 292.001C18.6095 296.837 22.4034 300.051 26.2877 299.16C30.1719 298.268 32.6831 293.622 31.8701 288.787C31.0571 283.951 27.2632 280.737 23.379 281.628C19.4948 282.52 16.9836 287.166 17.7966 292.001Z" fill="url(#paint82_radial)"/>
<path d="M20.5606 289.746C21.3736 294.581 25.1675 297.796 29.0517 296.904C32.936 296.013 35.4472 291.367 34.6342 286.531C33.8212 281.696 30.0273 278.481 26.1431 279.373C22.2588 280.264 19.7476 284.91 20.5606 289.746Z" fill="url(#paint83_radial)"/>
<path d="M23.3248 287.504C24.1378 292.339 27.9317 295.554 31.8159 294.662C35.7001 293.771 38.2113 289.124 37.3983 284.289C36.5854 279.454 32.7915 276.239 28.9072 277.13C25.023 278.022 22.5299 282.668 23.3248 287.504Z" fill="url(#paint84_radial)"/>
<path d="M26.089 285.248C26.9019 290.083 30.6958 293.298 34.5801 292.407C38.4643 291.515 40.9755 286.869 40.1625 282.033C39.3495 277.198 35.5556 273.983 31.6714 274.875C27.7872 275.766 25.294 280.413 26.089 285.248Z" fill="url(#paint85_radial)"/>
<path d="M28.8712 283.006C29.6842 287.841 33.4781 291.056 37.3623 290.164C41.2465 289.273 43.7577 284.627 42.9448 279.791C42.1318 274.956 38.3379 271.741 34.4536 272.633C30.5513 273.524 28.0582 278.157 28.8712 283.006Z" fill="url(#paint86_radial)"/>
<path d="M423.492 513.903C435.445 513.903 445.135 502.208 445.135 487.781C445.135 473.354 435.445 461.659 423.492 461.659C411.538 461.659 401.848 473.354 401.848 487.781C401.848 502.208 411.538 513.903 423.492 513.903Z" fill="url(#paint87_radial)"/>
<path d="M366.944 533.474C370.406 533.474 373.213 532.978 373.213 532.366C373.213 531.755 370.406 531.259 366.944 531.259C363.482 531.259 360.675 531.755 360.675 532.366C360.675 532.978 363.482 533.474 366.944 533.474Z" fill="url(#paint88_radial)"/>
<path d="M380.747 523.168C382.822 523.168 384.505 521.524 384.505 519.495C384.505 517.466 382.822 515.821 380.747 515.821C378.671 515.821 376.989 517.466 376.989 519.495C376.989 521.524 378.671 523.168 380.747 523.168Z" fill="url(#paint89_radial)"/>
<path d="M367.577 523.182C368.963 523.182 370.088 521.368 370.088 519.13C370.088 516.892 368.963 515.078 367.577 515.078C366.19 515.078 365.065 516.892 365.065 519.13C365.065 521.368 366.19 523.182 367.577 523.182Z" fill="url(#paint90_radial)"/>
<path d="M352.834 524.641C355.429 524.641 357.532 522.5 357.532 519.859C357.532 517.219 355.429 515.078 352.834 515.078C350.24 515.078 348.137 517.219 348.137 519.859C348.137 522.5 350.24 524.641 352.834 524.641Z" fill="url(#paint91_radial)"/>
<path d="M373.105 541.997C376.567 541.997 379.374 539.197 379.374 535.743C379.374 532.289 376.567 529.49 373.105 529.49C369.643 529.49 366.836 532.289 366.836 535.743C366.836 539.197 369.643 541.997 373.105 541.997Z" fill="url(#paint92_radial)"/>
<path d="M376.808 506.164C381.488 506.164 385.282 503.364 385.282 499.91C385.282 496.456 381.488 493.656 376.808 493.656C372.129 493.656 368.335 496.456 368.335 499.91C368.335 503.364 372.129 506.164 376.808 506.164Z" fill="url(#paint93_radial)"/>
<path d="M407.142 491.995C409.915 491.995 412.164 490.181 412.164 487.943C412.164 485.705 409.915 483.891 407.142 483.891C404.368 483.891 402.119 485.705 402.119 487.943C402.119 490.181 404.368 491.995 407.142 491.995Z" fill="url(#paint94_radial)"/>
<path d="M355.49 508.379C357.745 508.379 359.573 507.06 359.573 505.434C359.573 503.808 357.745 502.49 355.49 502.49C353.235 502.49 351.407 503.808 351.407 505.434C351.407 507.06 353.235 508.379 355.49 508.379Z" fill="url(#paint95_radial)"/>
<path d="M336.34 503.962C339.802 503.962 342.609 503.466 342.609 502.854C342.609 502.243 339.802 501.747 336.34 501.747C332.878 501.747 330.071 502.243 330.071 502.854C330.071 503.466 332.878 503.962 336.34 503.962Z" fill="url(#paint96_radial)"/>
<path d="M350.143 493.656C352.218 493.656 353.9 492.011 353.9 489.982C353.9 487.953 352.218 486.309 350.143 486.309C348.067 486.309 346.385 487.953 346.385 489.982C346.385 492.011 348.067 493.656 350.143 493.656Z" fill="url(#paint97_radial)"/>
<path d="M336.972 493.656C338.359 493.656 339.484 491.842 339.484 489.604C339.484 487.366 338.359 485.552 336.972 485.552C335.585 485.552 334.461 487.366 334.461 489.604C334.461 491.842 335.585 493.656 336.972 493.656Z" fill="url(#paint98_radial)"/>
<path d="M358.001 467.17C359.558 467.17 360.82 465.525 360.82 463.496C360.82 461.467 359.558 459.822 358.001 459.822C356.445 459.822 355.183 461.467 355.183 463.496C355.183 465.525 356.445 467.17 358.001 467.17Z" fill="url(#paint99_radial)"/>
<path d="M371.678 498.492C376.706 498.492 380.783 494.706 380.783 490.037C380.783 485.367 376.706 481.581 371.678 481.581C366.649 481.581 362.572 485.367 362.572 490.037C362.572 494.706 366.649 498.492 371.678 498.492Z" fill="url(#paint100_radial)"/>
<path d="M342.501 512.485C345.963 512.485 348.77 509.685 348.77 506.231C348.77 502.777 345.963 499.978 342.501 499.978C339.038 499.978 336.232 502.777 336.232 506.231C336.232 509.685 339.038 512.485 342.501 512.485Z" fill="url(#paint101_radial)"/>
<path d="M358.272 481.743C362.952 481.743 366.745 478.944 366.745 475.49C366.745 472.036 362.952 469.236 358.272 469.236C353.593 469.236 349.799 472.036 349.799 475.49C349.799 478.944 353.593 481.743 358.272 481.743Z" fill="url(#paint102_radial)"/>
<path d="M368.624 461.875C371.398 461.875 373.647 460.061 373.647 457.823C373.647 455.585 371.398 453.771 368.624 453.771C365.851 453.771 363.602 455.585 363.602 457.823C363.602 460.061 365.851 461.875 368.624 461.875Z" fill="url(#paint103_radial)"/>
<path d="M336.936 483.945C339.191 483.945 341.019 482.627 341.019 481.001C341.019 479.374 339.191 478.056 336.936 478.056C334.681 478.056 332.853 479.374 332.853 481.001C332.853 482.627 334.681 483.945 336.936 483.945Z" fill="url(#paint104_radial)"/>
<path d="M317.804 479.542C321.266 479.542 324.073 479.046 324.073 478.434C324.073 477.823 321.266 477.327 317.804 477.327C314.342 477.327 311.535 477.823 311.535 478.434C311.535 479.046 314.342 479.542 317.804 479.542Z" fill="url(#paint105_radial)"/>
<path d="M331.607 469.223C333.682 469.223 335.365 467.578 335.365 465.549C335.365 463.52 333.682 461.875 331.607 461.875C329.531 461.875 327.849 463.52 327.849 465.549C327.849 467.578 329.531 469.223 331.607 469.223Z" fill="url(#paint106_radial)"/>
<path d="M318.437 469.236C319.823 469.236 320.948 467.422 320.948 465.184C320.948 462.946 319.823 461.132 318.437 461.132C317.05 461.132 315.925 462.946 315.925 465.184C315.925 467.422 317.05 469.236 318.437 469.236Z" fill="url(#paint107_radial)"/>
<path d="M339.447 442.736C341.004 442.736 342.266 441.091 342.266 439.062C342.266 437.033 341.004 435.388 339.447 435.388C337.891 435.388 336.629 437.033 336.629 439.062C336.629 441.091 337.891 442.736 339.447 442.736Z" fill="url(#paint108_radial)"/>
<path d="M353.124 474.072C358.152 474.072 362.229 470.286 362.229 465.616C362.229 460.947 358.152 457.161 353.124 457.161C348.095 457.161 344.018 460.947 344.018 465.616C344.018 470.286 348.095 474.072 353.124 474.072Z" fill="url(#paint109_radial)"/>
<path d="M323.965 488.051C327.427 488.051 330.234 485.251 330.234 481.797C330.234 478.344 327.427 475.544 323.965 475.544C320.502 475.544 317.696 478.344 317.696 481.797C317.696 485.251 320.502 488.051 323.965 488.051Z" fill="url(#paint110_radial)"/>
<path d="M327.668 461.389C332.348 461.389 336.141 458.589 336.141 455.135C336.141 451.681 332.348 448.882 327.668 448.882C322.989 448.882 319.195 451.681 319.195 455.135C319.195 458.589 322.989 461.389 327.668 461.389Z" fill="url(#paint111_radial)"/>
<path d="M338.02 441.52C340.794 441.52 343.043 439.706 343.043 437.468C343.043 435.231 340.794 433.416 338.02 433.416C335.246 433.416 332.998 435.231 332.998 437.468C332.998 439.706 335.246 441.52 338.02 441.52Z" fill="url(#paint112_radial)"/>
<path d="M306.332 463.59C308.587 463.59 310.415 462.272 310.415 460.646C310.415 459.02 308.587 457.701 306.332 457.701C304.077 457.701 302.249 459.02 302.249 460.646C302.249 462.272 304.077 463.59 306.332 463.59Z" fill="url(#paint113_radial)"/>
<path d="M287.2 459.174C290.662 459.174 293.469 458.678 293.469 458.066C293.469 457.454 290.662 456.959 287.2 456.959C283.738 456.959 280.931 457.454 280.931 458.066C280.931 458.678 283.738 459.174 287.2 459.174Z" fill="url(#paint114_radial)"/>
<path d="M301.003 448.868C303.078 448.868 304.76 447.223 304.76 445.194C304.76 443.165 303.078 441.52 301.003 441.52C298.927 441.52 297.245 443.165 297.245 445.194C297.245 447.223 298.927 448.868 301.003 448.868Z" fill="url(#paint115_radial)"/>
<path d="M287.832 448.882C289.219 448.882 290.343 447.067 290.343 444.83C290.343 442.592 289.219 440.778 287.832 440.778C286.445 440.778 285.321 442.592 285.321 444.83C285.321 447.067 286.445 448.882 287.832 448.882Z" fill="url(#paint116_radial)"/>
<path d="M308.843 422.381C310.4 422.381 311.662 420.737 311.662 418.708C311.662 416.679 310.4 415.034 308.843 415.034C307.287 415.034 306.025 416.679 306.025 418.708C306.025 420.737 307.287 422.381 308.843 422.381Z" fill="url(#paint117_radial)"/>
<path d="M322.537 453.717C327.566 453.717 331.643 449.931 331.643 445.262C331.643 440.592 327.566 436.807 322.537 436.807C317.509 436.807 313.432 440.592 313.432 445.262C313.432 449.931 317.509 453.717 322.537 453.717Z" fill="url(#paint118_radial)"/>
<path d="M293.361 467.696C296.823 467.696 299.63 464.897 299.63 461.443C299.63 457.989 296.823 455.189 293.361 455.189C289.898 455.189 287.092 457.989 287.092 461.443C287.092 464.897 289.898 467.696 293.361 467.696Z" fill="url(#paint119_radial)"/>
<path d="M314.679 443.06C319.358 443.06 323.152 440.26 323.152 436.807C323.152 433.353 319.358 430.553 314.679 430.553C309.999 430.553 306.206 433.353 306.206 436.807C306.206 440.26 309.999 443.06 314.679 443.06Z" fill="url(#paint120_radial)"/>
<path d="M325.031 423.205C327.804 423.205 330.053 421.391 330.053 419.153C330.053 416.915 327.804 415.101 325.031 415.101C322.257 415.101 320.008 416.915 320.008 419.153C320.008 421.391 322.257 423.205 325.031 423.205Z" fill="url(#paint121_radial)"/>
<path d="M293.342 445.275C295.597 445.275 297.425 443.957 297.425 442.331C297.425 440.705 295.597 439.386 293.342 439.386C291.087 439.386 289.259 440.705 289.259 442.331C289.259 443.957 291.087 445.275 293.342 445.275Z" fill="url(#paint122_radial)"/>
<path d="M274.21 440.859C277.673 440.859 280.479 440.363 280.479 439.751C280.479 439.139 277.673 438.644 274.21 438.644C270.748 438.644 267.941 439.139 267.941 439.751C267.941 440.363 270.748 440.859 274.21 440.859Z" fill="url(#paint123_radial)"/>
<path d="M288.013 430.553C290.088 430.553 291.771 428.908 291.771 426.879C291.771 424.85 290.088 423.205 288.013 423.205C285.938 423.205 284.255 424.85 284.255 426.879C284.255 428.908 285.938 430.553 288.013 430.553Z" fill="url(#paint124_radial)"/>
<path d="M274.843 430.567C276.229 430.567 277.354 428.752 277.354 426.515C277.354 424.277 276.229 422.462 274.843 422.462C273.456 422.462 272.331 424.277 272.331 426.515C272.331 428.752 273.456 430.567 274.843 430.567Z" fill="url(#paint125_radial)"/>
<path d="M295.854 404.066C297.41 404.066 298.672 402.422 298.672 400.393C298.672 398.364 297.41 396.719 295.854 396.719C294.297 396.719 293.035 398.364 293.035 400.393C293.035 402.422 294.297 404.066 295.854 404.066Z" fill="url(#paint126_radial)"/>
<path d="M309.548 435.388C314.577 435.388 318.653 431.603 318.653 426.933C318.653 422.264 314.577 418.478 309.548 418.478C304.519 418.478 300.443 422.264 300.443 426.933C300.443 431.603 304.519 435.388 309.548 435.388Z" fill="url(#paint127_radial)"/>
<path d="M280.371 449.381C283.833 449.381 286.64 446.581 286.64 443.128C286.64 439.674 283.833 436.874 280.371 436.874C276.909 436.874 274.102 439.674 274.102 443.128C274.102 446.581 276.909 449.381 280.371 449.381Z" fill="url(#paint128_radial)"/>
<path d="M307.253 426.785C311.933 426.785 315.727 423.985 315.727 420.531C315.727 417.077 311.933 414.277 307.253 414.277C302.574 414.277 298.78 417.077 298.78 420.531C298.78 423.985 302.574 426.785 307.253 426.785Z" fill="url(#paint129_radial)"/>
<path d="M317.605 406.916C320.379 406.916 322.628 405.102 322.628 402.864C322.628 400.626 320.379 398.812 317.605 398.812C314.832 398.812 312.583 400.626 312.583 402.864C312.583 405.102 314.832 406.916 317.605 406.916Z" fill="url(#paint130_radial)"/>
<path d="M285.935 428.986C288.19 428.986 290.018 427.668 290.018 426.042C290.018 424.416 288.19 423.097 285.935 423.097C283.68 423.097 281.852 424.416 281.852 426.042C281.852 427.668 283.68 428.986 285.935 428.986Z" fill="url(#paint131_radial)"/>
<path d="M266.803 424.583C270.265 424.583 273.072 424.087 273.072 423.475C273.072 422.864 270.265 422.368 266.803 422.368C263.341 422.368 260.534 422.864 260.534 423.475C260.534 424.087 263.341 424.583 266.803 424.583Z" fill="url(#paint132_radial)"/>
<path d="M280.606 414.264C282.681 414.264 284.364 412.619 284.364 410.59C284.364 408.561 282.681 406.916 280.606 406.916C278.53 406.916 276.848 408.561 276.848 410.59C276.848 412.619 278.53 414.264 280.606 414.264Z" fill="url(#paint133_radial)"/>
<path d="M267.417 414.277C268.804 414.277 269.929 412.463 269.929 410.225C269.929 407.988 268.804 406.173 267.417 406.173C266.031 406.173 264.906 407.988 264.906 410.225C264.906 412.463 266.031 414.277 267.417 414.277Z" fill="url(#paint134_radial)"/>
<path d="M288.446 387.777C290.003 387.777 291.265 386.132 291.265 384.103C291.265 382.074 290.003 380.43 288.446 380.43C286.89 380.43 285.628 382.074 285.628 384.103C285.628 386.132 286.89 387.777 288.446 387.777Z" fill="url(#paint135_radial)"/>
<path d="M302.123 419.113C307.151 419.113 311.228 415.327 311.228 410.658C311.228 405.988 307.151 402.202 302.123 402.202C297.094 402.202 293.017 405.988 293.017 410.658C293.017 415.327 297.094 419.113 302.123 419.113Z" fill="url(#paint136_radial)"/>
<path d="M272.946 433.092C276.408 433.092 279.215 430.292 279.215 426.839C279.215 423.385 276.408 420.585 272.946 420.585C269.483 420.585 266.677 423.385 266.677 426.839C266.677 430.292 269.483 433.092 272.946 433.092Z" fill="url(#paint137_radial)"/>
<path d="M339.863 541.997C345.75 541.997 350.522 538.375 350.522 533.906C350.522 529.438 345.75 525.816 339.863 525.816C333.976 525.816 329.204 529.438 329.204 533.906C329.204 538.375 333.976 541.997 339.863 541.997Z" fill="url(#paint138_radial)"/>
<path d="M340.008 419.64C369.811 419.64 393.971 400.791 393.971 377.539C393.971 354.288 369.811 335.439 340.008 335.439C310.204 335.439 286.044 354.288 286.044 377.539C286.044 400.791 310.204 419.64 340.008 419.64Z" fill="url(#paint139_radial)"/>
<path d="M255.024 419.64C284.827 419.64 308.988 400.791 308.988 377.539C308.988 354.288 284.827 335.439 255.024 335.439C225.221 335.439 201.06 354.288 201.06 377.539C201.06 400.791 225.221 419.64 255.024 419.64Z" fill="url(#paint140_radial)"/>
<defs>
<radialGradient id="paint0_radial" cx="0" cy="0" r="1" gradientUnits="userSpaceOnUse" gradientTransform="translate(422.704 440.364) rotate(-90) scale(13.3144 21.9609)">
<stop stop-color="white"/>
<stop offset="1" stop-color="#82368C"/>
</radialGradient>
<radialGradient id="paint1_radial" cx="0" cy="0" r="1" gradientUnits="userSpaceOnUse" gradientTransform="translate(243.832 532.12) rotate(167.13) scale(10.206 7.24293)">
<stop stop-color="white"/>
<stop offset="1" stop-color="#82368C"/>
</radialGradient>
<radialGradient id="paint2_radial" cx="0" cy="0" r="1" gradientUnits="userSpaceOnUse" gradientTransform="translate(269.672 536.545) rotate(122.066) scale(39.9415 17.7353)">
<stop stop-color="white"/>
<stop offset="1" stop-color="#82368C"/>
</radialGradient>
<radialGradient id="paint3_radial" cx="0" cy="0" r="1" gradientUnits="userSpaceOnUse" gradientTransform="translate(167.351 544.006) rotate(122.066) scale(39.9414 17.7353)">
<stop stop-color="white"/>
<stop offset="1" stop-color="#82368C"/>
</radialGradient>
<radialGradient id="paint4_radial" cx="0" cy="0" r="1" gradientUnits="userSpaceOnUse" gradientTransform="translate(213.732 450.695) rotate(-145.937) scale(116.599 26.608)">
<stop stop-color="white"/>
<stop offset="1" stop-color="#82368C"/>
</radialGradient>
<radialGradient id="paint5_radial" cx="0" cy="0" r="1" gradientUnits="userSpaceOnUse" gradientTransform="translate(227.473 376.672) rotate(180) scale(159.003 26.9129)">
<stop stop-color="white"/>
<stop offset="1" stop-color="#82368C"/>
</radialGradient>
<radialGradient id="paint6_radial" cx="0" cy="0" r="1" gradientUnits="userSpaceOnUse" gradientTransform="translate(145.958 387.623) rotate(180) scale(147.396 27.3451)">
<stop stop-color="white"/>
<stop offset="1" stop-color="#82368C"/>
</radialGradient>
<radialGradient id="paint7_radial" cx="0" cy="0" r="1" gradientUnits="userSpaceOnUse" gradientTransform="translate(102.588 457.276) rotate(-145.937) scale(115.557 26.608)">
<stop stop-color="white"/>
<stop offset="1" stop-color="#82368C"/>
</radialGradient>
<radialGradient id="paint8_radial" cx="0" cy="0" r="1" gradientUnits="userSpaceOnUse" gradientTransform="translate(347.664 168.662) rotate(167.13) scale(30.3453 21.5354)">
<stop stop-color="white"/>
<stop offset="1" stop-color="#82368C"/>
</radialGradient>
<radialGradient id="paint9_radial" cx="0" cy="0" r="1" gradientUnits="userSpaceOnUse" gradientTransform="translate(117.599 531.273) rotate(-90) scale(9.62843 8.21021)">
<stop stop-color="white"/>
<stop offset="1" stop-color="#82368C"/>
</radialGradient>
<radialGradient id="paint10_radial" cx="0" cy="0" r="1" gradientUnits="userSpaceOnUse" gradientTransform="translate(222.527 77.0755) rotate(-180) scale(66.5556 77.0833)">
<stop stop-color="white"/>
<stop offset="1" stop-color="#82368C"/>
</radialGradient>
<radialGradient id="paint11_radial" cx="0" cy="0" r="1" gradientUnits="userSpaceOnUse" gradientTransform="translate(222.498 77.0755) rotate(-180) scale(66.5556 77.0833)">
<stop stop-color="white"/>
<stop offset="1" stop-color="#82368C"/>
</radialGradient>
<radialGradient id="paint12_radial" cx="0" cy="0" r="1" gradientUnits="userSpaceOnUse" gradientTransform="translate(253.729 56.4702) rotate(180) scale(23.8114 7.9988)">
<stop stop-color="white"/>
<stop offset="1" stop-color="#82368C"/>
</radialGradient>
<radialGradient id="paint13_radial" cx="0" cy="0" r="1" gradientUnits="userSpaceOnUse" gradientTransform="translate(253.701 56.4702) rotate(180) scale(23.8114 7.9988)">
<stop stop-color="white"/>
<stop offset="1" stop-color="#82368C"/>
</radialGradient>
<radialGradient id="paint14_radial" cx="0" cy="0" r="1" gradientUnits="userSpaceOnUse" gradientTransform="translate(252.649 56.4702) rotate(180) scale(6.55613 7.9988)">
<stop stop-color="white"/>
<stop offset="1" stop-color="#82368C"/>
</radialGradient>
<radialGradient id="paint15_radial" cx="0" cy="0" r="1" gradientUnits="userSpaceOnUse" gradientTransform="translate(224.436 119.585) rotate(180) scale(23.8114 7.99882)">
<stop stop-color="white"/>
<stop offset="1" stop-color="#82368C"/>
</radialGradient>
<radialGradient id="paint16_radial" cx="0" cy="0" r="1" gradientUnits="userSpaceOnUse" gradientTransform="translate(224.407 119.585) rotate(180) scale(23.8114 7.99882)">
<stop stop-color="white"/>
<stop offset="1" stop-color="#82368C"/>
</radialGradient>
<radialGradient id="paint17_radial" cx="0" cy="0" r="1" gradientUnits="userSpaceOnUse" gradientTransform="translate(224.436 119.585) rotate(180) scale(18.5804 6.24161)">
<stop stop-color="white"/>
<stop offset="1" stop-color="#82368C"/>
</radialGradient>
<radialGradient id="paint18_radial" cx="0" cy="0" r="1" gradientUnits="userSpaceOnUse" gradientTransform="translate(219.072 96.1122) rotate(180) scale(2.56856 2.89115)">
<stop stop-color="white"/>
<stop offset="1" stop-color="#82368C"/>
</radialGradient>
<radialGradient id="paint19_radial" cx="0" cy="0" r="1" gradientUnits="userSpaceOnUse" gradientTransform="translate(232.6 96.3106) rotate(180) scale(2.56856 2.89115)">
<stop stop-color="white"/>
<stop offset="1" stop-color="#82368C"/>
</radialGradient>
<radialGradient id="paint20_radial" cx="0" cy="0" r="1" gradientUnits="userSpaceOnUse" gradientTransform="translate(223.618 80.3882) rotate(-180) scale(4.30793 11.9071)">
<stop stop-color="white"/>
<stop offset="1" stop-color="#82368C"/>
</radialGradient>
<radialGradient id="paint21_radial" cx="0" cy="0" r="1" gradientUnits="userSpaceOnUse" gradientTransform="translate(225.979 92.6296) rotate(180) scale(7.01998 5.10137)">
<stop stop-color="white"/>
<stop offset="1" stop-color="#82368C"/>
</radialGradient>
<radialGradient id="paint22_radial" cx="0" cy="0" r="1" gradientUnits="userSpaceOnUse" gradientTransform="translate(195.999 56.4702) rotate(180) scale(23.8114 7.9988)">
<stop stop-color="white"/>
<stop offset="1" stop-color="#82368C"/>
</radialGradient>
<radialGradient id="paint23_radial" cx="0" cy="0" r="1" gradientUnits="userSpaceOnUse" gradientTransform="translate(196.825 56.4702) rotate(180) scale(6.40679 7.9988)">
<stop stop-color="white"/>
<stop offset="1" stop-color="#82368C"/>
</radialGradient>
<radialGradient id="paint24_radial" cx="0" cy="0" r="1" gradientUnits="userSpaceOnUse" gradientTransform="translate(276.877 252.931) rotate(180) scale(142.166 119.642)">
<stop stop-color="white"/>
<stop offset="1" stop-color="#82368C"/>
</radialGradient>
<radialGradient id="paint25_radial" cx="0" cy="0" r="1" gradientUnits="userSpaceOnUse" gradientTransform="translate(209.141 178.57) rotate(167.13) scale(30.3454 21.5354)">
<stop stop-color="white"/>
<stop offset="1" stop-color="#82368C"/>
</radialGradient>
<radialGradient id="paint26_radial" cx="0" cy="0" r="1" gradientUnits="userSpaceOnUse" gradientTransform="translate(205.572 185.45) rotate(167.13) scale(30.3453 21.5354)">
<stop stop-color="white"/>
<stop offset="1" stop-color="#82368C"/>
</radialGradient>
<radialGradient id="paint27_radial" cx="0" cy="0" r="1" gradientUnits="userSpaceOnUse" gradientTransform="translate(202.002 192.331) rotate(167.13) scale(30.3454 21.5354)">
<stop stop-color="white"/>
<stop offset="1" stop-color="#82368C"/>
</radialGradient>
<radialGradient id="paint28_radial" cx="0" cy="0" r="1" gradientUnits="userSpaceOnUse" gradientTransform="translate(198.432 199.211) rotate(167.13) scale(30.3455 21.5354)">
<stop stop-color="white"/>
<stop offset="1" stop-color="#82368C"/>
</radialGradient>
<radialGradient id="paint29_radial" cx="0" cy="0" r="1" gradientUnits="userSpaceOnUse" gradientTransform="translate(194.863 206.091) rotate(167.13) scale(30.3454 21.5354)">
<stop stop-color="white"/>
<stop offset="1" stop-color="#82368C"/>
</radialGradient>
<radialGradient id="paint30_radial" cx="0" cy="0" r="1" gradientUnits="userSpaceOnUse" gradientTransform="translate(191.293 212.971) rotate(167.13) scale(30.3453 21.5354)">
<stop stop-color="white"/>
<stop offset="1" stop-color="#82368C"/>
</radialGradient>
<radialGradient id="paint31_radial" cx="0" cy="0" r="1" gradientUnits="userSpaceOnUse" gradientTransform="translate(187.724 219.851) rotate(167.13) scale(30.3454 21.5354)">
<stop stop-color="white"/>
<stop offset="1" stop-color="#82368C"/>
</radialGradient>
<radialGradient id="paint32_radial" cx="0" cy="0" r="1" gradientUnits="userSpaceOnUse" gradientTransform="translate(184.154 226.731) rotate(167.13) scale(30.3454 21.5354)">
<stop stop-color="white"/>
<stop offset="1" stop-color="#82368C"/>
</radialGradient>
<radialGradient id="paint33_radial" cx="0" cy="0" r="1" gradientUnits="userSpaceOnUse" gradientTransform="translate(180.585 233.612) rotate(167.13) scale(30.3454 21.5354)">
<stop stop-color="white"/>
<stop offset="1" stop-color="#82368C"/>
</radialGradient>
<radialGradient id="paint34_radial" cx="0" cy="0" r="1" gradientUnits="userSpaceOnUse" gradientTransform="translate(177.015 240.492) rotate(167.13) scale(30.3454 21.5354)">
<stop stop-color="white"/>
<stop offset="1" stop-color="#82368C"/>
</radialGradient>
<radialGradient id="paint35_radial" cx="0" cy="0" r="1" gradientUnits="userSpaceOnUse" gradientTransform="translate(173.446 247.372) rotate(167.13) scale(30.3454 21.5354)">
<stop stop-color="white"/>
<stop offset="1" stop-color="#82368C"/>
</radialGradient>
<radialGradient id="paint36_radial" cx="0" cy="0" r="1" gradientUnits="userSpaceOnUse" gradientTransform="translate(169.876 254.252) rotate(167.13) scale(30.3453 21.5354)">
<stop stop-color="white"/>
<stop offset="1" stop-color="#82368C"/>
</radialGradient>
<radialGradient id="paint37_radial" cx="0" cy="0" r="1" gradientUnits="userSpaceOnUse" gradientTransform="translate(166.307 261.132) rotate(167.13) scale(30.3454 21.5354)">
<stop stop-color="white"/>
<stop offset="1" stop-color="#82368C"/>
</radialGradient>
<radialGradient id="paint38_radial" cx="0" cy="0" r="1" gradientUnits="userSpaceOnUse" gradientTransform="translate(162.737 268.012) rotate(167.13) scale(30.3454 21.5354)">
<stop stop-color="white"/>
<stop offset="1" stop-color="#82368C"/>
</radialGradient>
<radialGradient id="paint39_radial" cx="0" cy="0" r="1" gradientUnits="userSpaceOnUse" gradientTransform="translate(159.168 274.893) rotate(167.13) scale(30.3453 21.5354)">
<stop stop-color="white"/>
<stop offset="1" stop-color="#82368C"/>
</radialGradient>
<radialGradient id="paint40_radial" cx="0" cy="0" r="1" gradientUnits="userSpaceOnUse" gradientTransform="translate(155.598 281.773) rotate(167.13) scale(30.3453 21.5354)">
<stop stop-color="white"/>
<stop offset="1" stop-color="#82368C"/>
</radialGradient>
<radialGradient id="paint41_radial" cx="0" cy="0" r="1" gradientUnits="userSpaceOnUse" gradientTransform="translate(152.029 288.653) rotate(167.13) scale(30.3454 21.5354)">
<stop stop-color="white"/>
<stop offset="1" stop-color="#82368C"/>
</radialGradient>
<radialGradient id="paint42_radial" cx="0" cy="0" r="1" gradientUnits="userSpaceOnUse" gradientTransform="translate(148.459 295.533) rotate(167.13) scale(30.3454 21.5354)">
<stop stop-color="white"/>
<stop offset="1" stop-color="#82368C"/>
</radialGradient>
<radialGradient id="paint43_radial" cx="0" cy="0" r="1" gradientUnits="userSpaceOnUse" gradientTransform="translate(141.921 293.995) rotate(167.13) scale(30.3454 21.5354)">
<stop stop-color="white"/>
<stop offset="1" stop-color="#82368C"/>
</radialGradient>
<radialGradient id="paint44_radial" cx="0" cy="0" r="1" gradientUnits="userSpaceOnUse" gradientTransform="translate(135.382 292.456) rotate(167.13) scale(30.3454 21.5354)">
<stop stop-color="white"/>
<stop offset="1" stop-color="#82368C"/>
</radialGradient>
<radialGradient id="paint45_radial" cx="0" cy="0" r="1" gradientUnits="userSpaceOnUse" gradientTransform="translate(128.843 290.918) rotate(167.13) scale(30.3454 21.5354)">
<stop stop-color="white"/>
<stop offset="1" stop-color="#82368C"/>
</radialGradient>
<radialGradient id="paint46_radial" cx="0" cy="0" r="1" gradientUnits="userSpaceOnUse" gradientTransform="translate(122.305 289.379) rotate(167.13) scale(30.3454 21.5354)">
<stop stop-color="white"/>
<stop offset="1" stop-color="#82368C"/>
</radialGradient>
<radialGradient id="paint47_radial" cx="0" cy="0" r="1" gradientUnits="userSpaceOnUse" gradientTransform="translate(115.766 287.841) rotate(167.13) scale(30.3453 21.5354)">
<stop stop-color="white"/>
<stop offset="1" stop-color="#82368C"/>
</radialGradient>
<radialGradient id="paint48_radial" cx="0" cy="0" r="1" gradientUnits="userSpaceOnUse" gradientTransform="translate(109.228 286.303) rotate(167.13) scale(30.3454 21.5354)">
<stop stop-color="white"/>
<stop offset="1" stop-color="#82368C"/>
</radialGradient>
<radialGradient id="paint49_radial" cx="0" cy="0" r="1" gradientUnits="userSpaceOnUse" gradientTransform="translate(102.689 284.764) rotate(167.13) scale(30.3454 21.5354)">
<stop stop-color="white"/>
<stop offset="1" stop-color="#82368C"/>
</radialGradient>
<radialGradient id="paint50_radial" cx="0" cy="0" r="1" gradientUnits="userSpaceOnUse" gradientTransform="translate(96.1504 283.226) rotate(167.13) scale(30.3453 21.5354)">
<stop stop-color="white"/>
<stop offset="1" stop-color="#82368C"/>
</radialGradient>
<radialGradient id="paint51_radial" cx="0" cy="0" r="1" gradientUnits="userSpaceOnUse" gradientTransform="translate(89.6118 281.687) rotate(167.13) scale(30.3453 21.5354)">
<stop stop-color="white"/>
<stop offset="1" stop-color="#82368C"/>
</radialGradient>
<radialGradient id="paint52_radial" cx="0" cy="0" r="1" gradientUnits="userSpaceOnUse" gradientTransform="translate(83.073 280.149) rotate(167.13) scale(30.3454 21.5354)">
<stop stop-color="white"/>
<stop offset="1" stop-color="#82368C"/>
</radialGradient>
<radialGradient id="paint53_radial" cx="0" cy="0" r="1" gradientUnits="userSpaceOnUse" gradientTransform="translate(76.5345 278.61) rotate(167.13) scale(30.3454 21.5354)">
<stop stop-color="white"/>
<stop offset="1" stop-color="#82368C"/>
</radialGradient>
<radialGradient id="paint54_radial" cx="0" cy="0" r="1" gradientUnits="userSpaceOnUse" gradientTransform="translate(69.9959 277.072) rotate(167.13) scale(30.3453 21.5354)">
<stop stop-color="white"/>
<stop offset="1" stop-color="#82368C"/>
</radialGradient>
<radialGradient id="paint55_radial" cx="0" cy="0" r="1" gradientUnits="userSpaceOnUse" gradientTransform="translate(63.4574 275.534) rotate(167.13) scale(30.3454 21.5354)">
<stop stop-color="white"/>
<stop offset="1" stop-color="#82368C"/>
</radialGradient>
<radialGradient id="paint56_radial" cx="0" cy="0" r="1" gradientUnits="userSpaceOnUse" gradientTransform="translate(56.9189 273.995) rotate(167.13) scale(30.3454 21.5354)">
<stop stop-color="white"/>
<stop offset="1" stop-color="#82368C"/>
</radialGradient>
<radialGradient id="paint57_radial" cx="0" cy="0" r="1" gradientUnits="userSpaceOnUse" gradientTransform="translate(50.3802 272.457) rotate(167.13) scale(30.3454 21.5354)">
<stop stop-color="white"/>
<stop offset="1" stop-color="#82368C"/>
</radialGradient>
<radialGradient id="paint58_radial" cx="0" cy="0" r="1" gradientUnits="userSpaceOnUse" gradientTransform="translate(32.1322 266.619) rotate(167.13) scale(30.3454 21.5354)">
<stop stop-color="white"/>
<stop offset="1" stop-color="#82368C"/>
</radialGradient>
<radialGradient id="paint59_radial" cx="0" cy="0" r="1" gradientUnits="userSpaceOnUse" gradientTransform="translate(297.355 513.947) rotate(167.13) scale(30.3453 21.5354)">
<stop stop-color="white"/>
<stop offset="1" stop-color="#82368C"/>
</radialGradient>
<radialGradient id="paint60_radial" cx="0" cy="0" r="1" gradientUnits="userSpaceOnUse" gradientTransform="translate(184.217 520.052) rotate(167.13) scale(30.3454 21.5354)">
<stop stop-color="white"/>
<stop offset="1" stop-color="#82368C"/>
</radialGradient>
<radialGradient id="paint61_radial" cx="0" cy="0" r="1" gradientUnits="userSpaceOnUse" gradientTransform="translate(31.3367 238.054) rotate(167.13) scale(10.206 7.24297)">
<stop stop-color="white"/>
<stop offset="1" stop-color="#82368C"/>
</radialGradient>
<radialGradient id="paint62_radial" cx="0" cy="0" r="1" gradientUnits="userSpaceOnUse" gradientTransform="translate(31.6338 233.539) rotate(167.13) scale(10.206 7.24296)">
<stop stop-color="white"/>
<stop offset="1" stop-color="#82368C"/>
</radialGradient>
<radialGradient id="paint63_radial" cx="0" cy="0" r="1" gradientUnits="userSpaceOnUse" gradientTransform="translate(31.9312 229.024) rotate(167.13) scale(10.206 7.24296)">
<stop stop-color="white"/>
<stop offset="1" stop-color="#82368C"/>
</radialGradient>
<radialGradient id="paint64_radial" cx="0" cy="0" r="1" gradientUnits="userSpaceOnUse" gradientTransform="translate(32.2281 224.509) rotate(167.13) scale(10.206 7.24298)">
<stop stop-color="white"/>
<stop offset="1" stop-color="#82368C"/>
</radialGradient>
<radialGradient id="paint65_radial" cx="0" cy="0" r="1" gradientUnits="userSpaceOnUse" gradientTransform="translate(32.5257 219.993) rotate(167.13) scale(10.206 7.24298)">
<stop stop-color="white"/>
<stop offset="1" stop-color="#82368C"/>
</radialGradient>
<radialGradient id="paint66_radial" cx="0" cy="0" r="1" gradientUnits="userSpaceOnUse" gradientTransform="translate(13.9532 246.878) rotate(167.13) scale(10.206 7.24296)">
<stop stop-color="white"/>
<stop offset="1" stop-color="#82368C"/>
</radialGradient>
<radialGradient id="paint67_radial" cx="0" cy="0" r="1" gradientUnits="userSpaceOnUse" gradientTransform="translate(17.3553 250.548) rotate(167.13) scale(10.206 7.24296)">
<stop stop-color="white"/>
<stop offset="1" stop-color="#82368C"/>
</radialGradient>
<radialGradient id="paint68_radial" cx="0" cy="0" r="1" gradientUnits="userSpaceOnUse" gradientTransform="translate(20.4338 252.27) rotate(167.13) scale(10.206 7.24296)">
<stop stop-color="white"/>
<stop offset="1" stop-color="#82368C"/>
</radialGradient>
<radialGradient id="paint69_radial" cx="0" cy="0" r="1" gradientUnits="userSpaceOnUse" gradientTransform="translate(23.5124 253.993) rotate(167.13) scale(10.206 7.24294)">
<stop stop-color="white"/>
<stop offset="1" stop-color="#82368C"/>
</radialGradient>
<radialGradient id="paint70_radial" cx="0" cy="0" r="1" gradientUnits="userSpaceOnUse" gradientTransform="translate(26.591 255.715) rotate(167.13) scale(10.206 7.24296)">
<stop stop-color="white"/>
<stop offset="1" stop-color="#82368C"/>
</radialGradient>
<radialGradient id="paint71_radial" cx="0" cy="0" r="1" gradientUnits="userSpaceOnUse" gradientTransform="translate(7.79412 264.963) rotate(167.13) scale(10.206 7.24298)">
<stop stop-color="white"/>
<stop offset="1" stop-color="#82368C"/>
</radialGradient>
<radialGradient id="paint72_radial" cx="0" cy="0" r="1" gradientUnits="userSpaceOnUse" gradientTransform="translate(12.1531 265.988) rotate(167.13) scale(10.206 7.24298)">
<stop stop-color="white"/>
<stop offset="1" stop-color="#82368C"/>
</radialGradient>
<radialGradient id="paint73_radial" cx="0" cy="0" r="1" gradientUnits="userSpaceOnUse" gradientTransform="translate(16.512 267.014) rotate(167.13) scale(10.206 7.24296)">
<stop stop-color="white"/>
<stop offset="1" stop-color="#82368C"/>
</radialGradient>
<radialGradient id="paint74_radial" cx="0" cy="0" r="1" gradientUnits="userSpaceOnUse" gradientTransform="translate(20.8714 268.04) rotate(167.13) scale(10.206 7.24297)">
<stop stop-color="white"/>
<stop offset="1" stop-color="#82368C"/>
</radialGradient>
<radialGradient id="paint75_radial" cx="0" cy="0" r="1" gradientUnits="userSpaceOnUse" gradientTransform="translate(25.2303 269.065) rotate(167.13) scale(10.206 7.24297)">
<stop stop-color="white"/>
<stop offset="1" stop-color="#82368C"/>
</radialGradient>
<radialGradient id="paint76_radial" cx="0" cy="0" r="1" gradientUnits="userSpaceOnUse" gradientTransform="translate(10.4145 280.739) rotate(167.13) scale(10.206 7.24296)">
<stop stop-color="white"/>
<stop offset="1" stop-color="#82368C"/>
</radialGradient>
<radialGradient id="paint77_radial" cx="0" cy="0" r="1" gradientUnits="userSpaceOnUse" gradientTransform="translate(13.3137 279.672) rotate(167.13) scale(10.206 7.24296)">
<stop stop-color="white"/>
<stop offset="1" stop-color="#82368C"/>
</radialGradient>
<radialGradient id="paint78_radial" cx="0" cy="0" r="1" gradientUnits="userSpaceOnUse" gradientTransform="translate(16.2131 278.605) rotate(167.13) scale(10.206 7.24297)">
<stop stop-color="white"/>
<stop offset="1" stop-color="#82368C"/>
</radialGradient>
<radialGradient id="paint79_radial" cx="0" cy="0" r="1" gradientUnits="userSpaceOnUse" gradientTransform="translate(19.1124 277.538) rotate(167.13) scale(10.206 7.24296)">
<stop stop-color="white"/>
<stop offset="1" stop-color="#82368C"/>
</radialGradient>
<radialGradient id="paint80_radial" cx="0" cy="0" r="1" gradientUnits="userSpaceOnUse" gradientTransform="translate(22.0117 276.472) rotate(167.13) scale(10.206 7.24297)">
<stop stop-color="white"/>
<stop offset="1" stop-color="#82368C"/>
</radialGradient>
<radialGradient id="paint81_radial" cx="0" cy="0" r="1" gradientUnits="userSpaceOnUse" gradientTransform="translate(22.0759 292.629) rotate(167.13) scale(10.206 7.24297)">
<stop stop-color="white"/>
<stop offset="1" stop-color="#82368C"/>
</radialGradient>
<radialGradient id="paint82_radial" cx="0" cy="0" r="1" gradientUnits="userSpaceOnUse" gradientTransform="translate(24.8437 290.38) rotate(167.13) scale(10.206 7.24296)">
<stop stop-color="white"/>
<stop offset="1" stop-color="#82368C"/>
</radialGradient>
<radialGradient id="paint83_radial" cx="0" cy="0" r="1" gradientUnits="userSpaceOnUse" gradientTransform="translate(27.6116 288.13) rotate(167.13) scale(10.206 7.24297)">
<stop stop-color="white"/>
<stop offset="1" stop-color="#82368C"/>
</radialGradient>
<radialGradient id="paint84_radial" cx="0" cy="0" r="1" gradientUnits="userSpaceOnUse" gradientTransform="translate(30.3794 285.88) rotate(167.13) scale(10.206 7.24297)">
<stop stop-color="white"/>
<stop offset="1" stop-color="#82368C"/>
</radialGradient>
<radialGradient id="paint85_radial" cx="0" cy="0" r="1" gradientUnits="userSpaceOnUse" gradientTransform="translate(33.1474 283.631) rotate(167.13) scale(10.206 7.24296)">
<stop stop-color="white"/>
<stop offset="1" stop-color="#82368C"/>
</radialGradient>
<radialGradient id="paint86_radial" cx="0" cy="0" r="1" gradientUnits="userSpaceOnUse" gradientTransform="translate(35.9152 281.381) rotate(167.13) scale(10.206 7.24299)">
<stop stop-color="white"/>
<stop offset="1" stop-color="#82368C"/>
</radialGradient>
<radialGradient id="paint87_radial" cx="0" cy="0" r="1" gradientUnits="userSpaceOnUse" gradientTransform="translate(423.562 487.796) rotate(-90) scale(25.7544 21.9609)">
<stop stop-color="white"/>
<stop offset="1" stop-color="#82368C"/>
</radialGradient>
<radialGradient id="paint88_radial" cx="0" cy="0" r="1" gradientUnits="userSpaceOnUse" gradientTransform="translate(366.841 532.388) rotate(-90) scale(5.26097 4.48583)">
<stop stop-color="white"/>
<stop offset="1" stop-color="#82368C"/>
</radialGradient>
<radialGradient id="paint89_radial" cx="0" cy="0" r="1" gradientUnits="userSpaceOnUse" gradientTransform="translate(380.644 519.512) rotate(-90) scale(4.06352 3.46501)">
<stop stop-color="white"/>
<stop offset="1" stop-color="#82368C"/>
</radialGradient>
<radialGradient id="paint90_radial" cx="0" cy="0" r="1" gradientUnits="userSpaceOnUse" gradientTransform="translate(367.469 519.144) rotate(-90) scale(3.53807 3.01694)">
<stop stop-color="white"/>
<stop offset="1" stop-color="#82368C"/>
</radialGradient>
<radialGradient id="paint91_radial" cx="0" cy="0" r="1" gradientUnits="userSpaceOnUse" gradientTransform="translate(352.725 519.88) rotate(-90) scale(5.16348 4.40287)">
<stop stop-color="white"/>
<stop offset="1" stop-color="#82368C"/>
</radialGradient>
<radialGradient id="paint92_radial" cx="0" cy="0" r="1" gradientUnits="userSpaceOnUse" gradientTransform="translate(373 535.761) rotate(-90) scale(6.82823 5.82247)">
<stop stop-color="white"/>
<stop offset="1" stop-color="#82368C"/>
</radialGradient>
<radialGradient id="paint93_radial" cx="0" cy="0" r="1" gradientUnits="userSpaceOnUse" gradientTransform="translate(376.704 499.93) rotate(-90) scale(8.29983 7.07733)">
<stop stop-color="white"/>
<stop offset="1" stop-color="#82368C"/>
</radialGradient>
<radialGradient id="paint94_radial" cx="0" cy="0" r="1" gradientUnits="userSpaceOnUse" gradientTransform="translate(407.035 487.962) rotate(-90) scale(5.05086 4.30693)">
<stop stop-color="white"/>
<stop offset="1" stop-color="#82368C"/>
</radialGradient>
<radialGradient id="paint95_radial" cx="0" cy="0" r="1" gradientUnits="userSpaceOnUse" gradientTransform="translate(355.547 505.438) rotate(-90) scale(3.87612 3.41767)">
<stop stop-color="white"/>
<stop offset="1" stop-color="#82368C"/>
</radialGradient>
<radialGradient id="paint96_radial" cx="0" cy="0" r="1" gradientUnits="userSpaceOnUse" gradientTransform="translate(336.238 502.873) rotate(-90) scale(5.26068 4.48578)">
<stop stop-color="white"/>
<stop offset="1" stop-color="#82368C"/>
</radialGradient>
<radialGradient id="paint97_radial" cx="0" cy="0" r="1" gradientUnits="userSpaceOnUse" gradientTransform="translate(350.04 489.997) rotate(-90) scale(4.06354 3.46493)">
<stop stop-color="white"/>
<stop offset="1" stop-color="#82368C"/>
</radialGradient>
<radialGradient id="paint98_radial" cx="0" cy="0" r="1" gradientUnits="userSpaceOnUse" gradientTransform="translate(336.865 489.629) rotate(-90) scale(3.53805 3.01694)">
<stop stop-color="white"/>
<stop offset="1" stop-color="#82368C"/>
</radialGradient>
<radialGradient id="paint99_radial" cx="0" cy="0" r="1" gradientUnits="userSpaceOnUse" gradientTransform="translate(357.882 463.51) rotate(-90) scale(3.49967 2.98418)">
<stop stop-color="white"/>
<stop offset="1" stop-color="#82368C"/>
</radialGradient>
<radialGradient id="paint100_radial" cx="0" cy="0" r="1" gradientUnits="userSpaceOnUse" gradientTransform="translate(371.569 490.06) rotate(-90) scale(9.62845 8.2102)">
<stop stop-color="white"/>
<stop offset="1" stop-color="#82368C"/>
</radialGradient>
<radialGradient id="paint101_radial" cx="0" cy="0" r="1" gradientUnits="userSpaceOnUse" gradientTransform="translate(342.395 506.246) rotate(-90) scale(6.82818 5.82247)">
<stop stop-color="white"/>
<stop offset="1" stop-color="#82368C"/>
</radialGradient>
<radialGradient id="paint102_radial" cx="0" cy="0" r="1" gradientUnits="userSpaceOnUse" gradientTransform="translate(358.156 475.504) rotate(-90) scale(8.29979 7.07728)">
<stop stop-color="white"/>
<stop offset="1" stop-color="#82368C"/>
</radialGradient>
<radialGradient id="paint103_radial" cx="0" cy="0" r="1" gradientUnits="userSpaceOnUse" gradientTransform="translate(368.508 457.846) rotate(-90) scale(5.05088 4.30693)">
<stop stop-color="white"/>
<stop offset="1" stop-color="#82368C"/>
</radialGradient>
<radialGradient id="paint104_radial" cx="0" cy="0" r="1" gradientUnits="userSpaceOnUse" gradientTransform="translate(336.999 481.012) rotate(-90) scale(3.87608 3.41772)">
<stop stop-color="white"/>
<stop offset="1" stop-color="#82368C"/>
</radialGradient>
<radialGradient id="paint105_radial" cx="0" cy="0" r="1" gradientUnits="userSpaceOnUse" gradientTransform="translate(317.69 478.448) rotate(-90) scale(5.26068 4.48578)">
<stop stop-color="white"/>
<stop offset="1" stop-color="#82368C"/>
</radialGradient>
<radialGradient id="paint106_radial" cx="0" cy="0" r="1" gradientUnits="userSpaceOnUse" gradientTransform="translate(331.492 465.572) rotate(-90) scale(4.06356 3.46501)">
<stop stop-color="white"/>
<stop offset="1" stop-color="#82368C"/>
</radialGradient>
<radialGradient id="paint107_radial" cx="0" cy="0" r="1" gradientUnits="userSpaceOnUse" gradientTransform="translate(318.317 465.204) rotate(-90) scale(3.53807 3.01698)">
<stop stop-color="white"/>
<stop offset="1" stop-color="#82368C"/>
</radialGradient>
<radialGradient id="paint108_radial" cx="0" cy="0" r="1" gradientUnits="userSpaceOnUse" gradientTransform="translate(339.334 439.084) rotate(-90) scale(3.49967 2.98422)">
<stop stop-color="white"/>
<stop offset="1" stop-color="#82368C"/>
</radialGradient>
<radialGradient id="paint109_radial" cx="0" cy="0" r="1" gradientUnits="userSpaceOnUse" gradientTransform="translate(353.022 465.634) rotate(-90) scale(9.62843 8.2102)">
<stop stop-color="white"/>
<stop offset="1" stop-color="#82368C"/>
</radialGradient>
<radialGradient id="paint110_radial" cx="0" cy="0" r="1" gradientUnits="userSpaceOnUse" gradientTransform="translate(323.848 481.821) rotate(-90) scale(6.82827 5.82244)">
<stop stop-color="white"/>
<stop offset="1" stop-color="#82368C"/>
</radialGradient>
<radialGradient id="paint111_radial" cx="0" cy="0" r="1" gradientUnits="userSpaceOnUse" gradientTransform="translate(327.552 455.15) rotate(-90) scale(8.29979 7.07725)">
<stop stop-color="white"/>
<stop offset="1" stop-color="#82368C"/>
</radialGradient>
<radialGradient id="paint112_radial" cx="0" cy="0" r="1" gradientUnits="userSpaceOnUse" gradientTransform="translate(337.904 437.491) rotate(-90) scale(5.05086 4.30691)">
<stop stop-color="white"/>
<stop offset="1" stop-color="#82368C"/>
</radialGradient>
<radialGradient id="paint113_radial" cx="0" cy="0" r="1" gradientUnits="userSpaceOnUse" gradientTransform="translate(306.397 460.657) rotate(-90) scale(3.87614 3.41767)">
<stop stop-color="white"/>
<stop offset="1" stop-color="#82368C"/>
</radialGradient>
<radialGradient id="paint114_radial" cx="0" cy="0" r="1" gradientUnits="userSpaceOnUse" gradientTransform="translate(287.085 458.092) rotate(-90) scale(5.26068 4.48581)">
<stop stop-color="white"/>
<stop offset="1" stop-color="#82368C"/>
</radialGradient>
<radialGradient id="paint115_radial" cx="0" cy="0" r="1" gradientUnits="userSpaceOnUse" gradientTransform="translate(300.888 445.217) rotate(-90) scale(4.06354 3.46501)">
<stop stop-color="white"/>
<stop offset="1" stop-color="#82368C"/>
</radialGradient>
<radialGradient id="paint116_radial" cx="0" cy="0" r="1" gradientUnits="userSpaceOnUse" gradientTransform="translate(287.713 444.849) rotate(-90) scale(3.53807 3.01691)">
<stop stop-color="white"/>
<stop offset="1" stop-color="#82368C"/>
</radialGradient>
<radialGradient id="paint117_radial" cx="0" cy="0" r="1" gradientUnits="userSpaceOnUse" gradientTransform="translate(308.731 418.729) rotate(-90) scale(3.49967 2.98422)">
<stop stop-color="white"/>
<stop offset="1" stop-color="#82368C"/>
</radialGradient>
<radialGradient id="paint118_radial" cx="0" cy="0" r="1" gradientUnits="userSpaceOnUse" gradientTransform="translate(322.417 445.279) rotate(-90) scale(9.62843 8.21017)">
<stop stop-color="white"/>
<stop offset="1" stop-color="#82368C"/>
</radialGradient>
<radialGradient id="paint119_radial" cx="0" cy="0" r="1" gradientUnits="userSpaceOnUse" gradientTransform="translate(293.244 461.466) rotate(-90) scale(6.82822 5.82247)">
<stop stop-color="white"/>
<stop offset="1" stop-color="#82368C"/>
</radialGradient>
<radialGradient id="paint120_radial" cx="0" cy="0" r="1" gradientUnits="userSpaceOnUse" gradientTransform="translate(314.568 436.83) rotate(-90) scale(8.29981 7.07733)">
<stop stop-color="white"/>
<stop offset="1" stop-color="#82368C"/>
</radialGradient>
<radialGradient id="paint121_radial" cx="0" cy="0" r="1" gradientUnits="userSpaceOnUse" gradientTransform="translate(324.921 419.172) rotate(-90) scale(5.0509 4.30688)">
<stop stop-color="white"/>
<stop offset="1" stop-color="#82368C"/>
</radialGradient>
<radialGradient id="paint122_radial" cx="0" cy="0" r="1" gradientUnits="userSpaceOnUse" gradientTransform="translate(293.414 442.338) rotate(-90) scale(3.87608 3.41772)">
<stop stop-color="white"/>
<stop offset="1" stop-color="#82368C"/>
</radialGradient>
<radialGradient id="paint123_radial" cx="0" cy="0" r="1" gradientUnits="userSpaceOnUse" gradientTransform="translate(274.102 439.773) rotate(-90) scale(5.26061 4.48583)">
<stop stop-color="white"/>
<stop offset="1" stop-color="#82368C"/>
</radialGradient>
<radialGradient id="paint124_radial" cx="0" cy="0" r="1" gradientUnits="userSpaceOnUse" gradientTransform="translate(287.905 426.897) rotate(-90) scale(4.06356 3.46501)">
<stop stop-color="white"/>
<stop offset="1" stop-color="#82368C"/>
</radialGradient>
<radialGradient id="paint125_radial" cx="0" cy="0" r="1" gradientUnits="userSpaceOnUse" gradientTransform="translate(274.729 426.529) rotate(-90) scale(3.53806 3.01687)">
<stop stop-color="white"/>
<stop offset="1" stop-color="#82368C"/>
</radialGradient>
<radialGradient id="paint126_radial" cx="0" cy="0" r="1" gradientUnits="userSpaceOnUse" gradientTransform="translate(295.747 400.41) rotate(-90) scale(3.49968 2.98418)">
<stop stop-color="white"/>
<stop offset="1" stop-color="#82368C"/>
</radialGradient>
<radialGradient id="paint127_radial" cx="0" cy="0" r="1" gradientUnits="userSpaceOnUse" gradientTransform="translate(309.434 426.96) rotate(-90) scale(9.62843 8.21017)">
<stop stop-color="white"/>
<stop offset="1" stop-color="#82368C"/>
</radialGradient>
<radialGradient id="paint128_radial" cx="0" cy="0" r="1" gradientUnits="userSpaceOnUse" gradientTransform="translate(280.26 443.147) rotate(-90) scale(6.82823 5.82247)">
<stop stop-color="white"/>
<stop offset="1" stop-color="#82368C"/>
</radialGradient>
<radialGradient id="paint129_radial" cx="0" cy="0" r="1" gradientUnits="userSpaceOnUse" gradientTransform="translate(307.15 420.546) rotate(-90) scale(8.29981 7.07728)">
<stop stop-color="white"/>
<stop offset="1" stop-color="#82368C"/>
</radialGradient>
<radialGradient id="paint130_radial" cx="0" cy="0" r="1" gradientUnits="userSpaceOnUse" gradientTransform="translate(317.501 402.888) rotate(-90) scale(5.0509 4.30693)">
<stop stop-color="white"/>
<stop offset="1" stop-color="#82368C"/>
</radialGradient>
<radialGradient id="paint131_radial" cx="0" cy="0" r="1" gradientUnits="userSpaceOnUse" gradientTransform="translate(285.995 426.054) rotate(-90) scale(3.8761 3.41769)">
<stop stop-color="white"/>
<stop offset="1" stop-color="#82368C"/>
</radialGradient>
<radialGradient id="paint132_radial" cx="0" cy="0" r="1" gradientUnits="userSpaceOnUse" gradientTransform="translate(266.683 423.489) rotate(-90) scale(5.26068 4.48581)">
<stop stop-color="white"/>
<stop offset="1" stop-color="#82368C"/>
</radialGradient>
<radialGradient id="paint133_radial" cx="0" cy="0" r="1" gradientUnits="userSpaceOnUse" gradientTransform="translate(280.485 410.614) rotate(-90) scale(4.06354 3.46498)">
<stop stop-color="white"/>
<stop offset="1" stop-color="#82368C"/>
</radialGradient>
<radialGradient id="paint134_radial" cx="0" cy="0" r="1" gradientUnits="userSpaceOnUse" gradientTransform="translate(267.31 410.246) rotate(-90) scale(3.53806 3.01691)">
<stop stop-color="white"/>
<stop offset="1" stop-color="#82368C"/>
</radialGradient>
<radialGradient id="paint135_radial" cx="0" cy="0" r="1" gradientUnits="userSpaceOnUse" gradientTransform="translate(288.328 384.126) rotate(-90) scale(3.49968 2.98415)">
<stop stop-color="white"/>
<stop offset="1" stop-color="#82368C"/>
</radialGradient>
<radialGradient id="paint136_radial" cx="0" cy="0" r="1" gradientUnits="userSpaceOnUse" gradientTransform="translate(302.014 410.676) rotate(-90) scale(9.62843 8.21017)">
<stop stop-color="white"/>
<stop offset="1" stop-color="#82368C"/>
</radialGradient>
<radialGradient id="paint137_radial" cx="0" cy="0" r="1" gradientUnits="userSpaceOnUse" gradientTransform="translate(272.841 426.863) rotate(-90) scale(6.82822 5.82244)">
<stop stop-color="white"/>
<stop offset="1" stop-color="#82368C"/>
</radialGradient>
<radialGradient id="paint138_radial" cx="0" cy="0" r="1" gradientUnits="userSpaceOnUse" gradientTransform="translate(339.748 533.921) rotate(-90) scale(10.5345 8.98282)">
<stop stop-color="white"/>
<stop offset="1" stop-color="#82368C"/>
</radialGradient>
<radialGradient id="paint139_radial" cx="0" cy="0" r="1" gradientUnits="userSpaceOnUse" gradientTransform="translate(339.947 377.525) rotate(180) scale(54.5499 41.6688)">
<stop stop-color="white"/>
<stop offset="1" stop-color="#82368C"/>
</radialGradient>
<radialGradient id="paint140_radial" cx="0" cy="0" r="1" gradientUnits="userSpaceOnUse" gradientTransform="translate(254.969 377.525) rotate(180) scale(54.5499 41.6688)">
<stop stop-color="white"/>
<stop offset="1" stop-color="#82368C"/>
</radialGradient>
</defs>
</svg>
